<svg width="24" height="22" viewBox="0 0 24 22" fill="none" xmlns="http://www.w3.org/2000/svg">
<path d="M1 19V1.49871C1 1.22256 1.22386 1 1.5 1H18.5C18.7761 1 19 1.22386 19 1.5V7.5H22.5C22.7761 7.5 23 7.72151 23 7.99766V19C23 20 22.5 21 21 21H3C2 21 1 20 1 19Z" fill="#D9D9D9"/>
<path d="M21 21C19.5 21 4 21 3 21C2 21 1 20 1 19C1 18.2228 1 7.31572 1 1.49871C1 1.22256 1.22386 1 1.5 1H18.5C18.7761 1 19 1.22386 19 1.5V7.5M21 21C22.5 21 23 20 23 19C23 18.2363 23 11.6394 23 7.99766C23 7.72151 22.7761 7.5 22.5 7.5H19M21 21C20.3333 21 19 20.6 19 19C19 17.4 19 10.6667 19 7.5" stroke="#212123"/>
<path d="M5.5 7.5H14M5.5 12H11" stroke="#212123" stroke-linecap="round"/>
</svg>
