<svg width="24" height="24" viewBox="0 0 24 24" fill="none" xmlns="http://www.w3.org/2000/svg">
<path d="M11.9914 1.99878C8.43912 1.99878 5.99142 4.44679 5.99142 7.9988C5.99142 8.4838 5.99142 9.9688 5.99142 9.9988C5.99142 10.3208 5.82881 10.5398 5.27261 10.9988C5.20951 11.0508 4.94502 11.2778 4.86642 11.3428C3.60102 12.3888 2.97822 13.3688 2.99142 14.9988C3.00472 16.6468 4.34812 17.9798 5.99142 17.9988H9.16742C9.16742 17.9988 8.99142 18.6098 8.99142 18.9988C8.99142 20.6558 10.3344 21.9988 11.9914 21.9988C13.6484 21.9988 14.9914 20.6558 14.9914 18.9988C14.9914 18.6098 14.8234 17.9988 14.8234 17.9988H17.9914C19.6314 18.0048 20.9934 16.6538 20.9914 14.9988C20.9894 13.3808 20.3654 12.3838 19.1164 11.3428C19.0344 11.2738 18.7444 11.0528 18.6784 10.9988C18.1344 10.5448 17.9914 10.3168 17.9914 9.9988C17.9914 8.7488 17.9914 7.9988 17.9914 7.9988C17.9914 4.44679 15.5434 1.99878 11.9914 1.99878ZM11.9914 3.99879C14.4394 3.99879 15.9914 5.55079 15.9914 7.9988C15.9914 7.9988 15.9914 8.7488 15.9914 9.9988C15.9914 11.0608 16.4394 11.7308 17.3974 12.5298C17.4734 12.5928 17.7944 12.8448 17.8664 12.9048C18.7044 13.6038 18.9904 14.0768 18.9914 14.9988C18.9924 15.5428 18.5264 16.0008 17.9914 15.9988C17.8024 15.9978 14.8914 15.9978 11.9914 15.9988C9.09172 15.9998 6.20392 16.0008 5.99142 15.9988C5.43322 15.9918 4.99592 15.5538 4.99142 14.9988C4.98402 14.0788 5.26992 13.6048 6.11642 12.9048C6.18552 12.8478 6.48122 12.5898 6.55392 12.5298C7.52712 11.7258 7.99142 11.0708 7.99142 9.9988C7.99142 9.9688 7.99142 8.4838 7.99142 7.9988C7.99142 5.55079 9.54372 3.99879 11.9914 3.99879ZM11.9914 17.9988C12.5434 17.9988 12.9914 18.4468 12.9914 18.9988C12.9914 19.5508 12.5434 19.9988 11.9914 19.9988C11.4394 19.9988 10.9914 19.5508 10.9914 18.9988C10.9914 18.4468 11.4394 17.9988 11.9914 17.9988Z" fill="#EAEBEE"/>
</svg>
