<svg width="23" height="20" viewBox="0 0 23 20" fill="none" xmlns="http://www.w3.org/2000/svg">
<path d="M6.14396 4.24807L7.85604 1.25193C7.94506 1.09614 8.11073 1 8.29016 1H15.7098C15.8893 1 16.0549 1.09614 16.144 1.25193L17.856 4.24807C17.9451 4.40386 18.1107 4.5 18.2902 4.5H22C22.2761 4.5 22.5 4.72386 22.5 5V18.5C22.5 18.7761 22.2761 19 22 19H1.5C1.22386 19 1 18.7761 1 18.5V5C1 4.72386 1.22386 4.5 1.5 4.5H5.70984C5.88927 4.5 6.05494 4.40386 6.14396 4.24807Z" fill="white" stroke="white" stroke-linecap="round" stroke-linejoin="bevel"/>
<line x1="10.75" y1="4.25" x2="13.25" y2="4.25" stroke="#212025" stroke-width="1.5" stroke-linecap="round"/>
<circle cx="12" cy="12" r="4.25" stroke="#212025" stroke-width="1.5"/>
</svg>
