<svg width="23" height="22" viewBox="0 0 23 22" fill="none" xmlns="http://www.w3.org/2000/svg">
<path d="M3 18L5.5 15C4 13.6667 1 11.5 1 8C1 4.5 4.5 1 9.5 1C12.5241 1 15.1824 2.09744 16.8112 4.07106C18.6445 4.57106 22.5 6.5 22.5 10.5C22.5 14.5 19.5 16.5 18 17C18 18.5 20 21 20 21C20 21 15 19.5 13.5 17.5C12 17.5 10 17 10 17L8 15.5C6 16.7 4.5 17.6667 3 18Z" fill="#D9D9D9"/>
<path d="M8 15.5C6 16.7 4.5 17.6667 3 18L5.5 15C4 13.6667 1 11.5 1 8C1 4.5 4.5 1 9.5 1C14.5 1 18.5 4 18.5 9C18.5 14 12.5 16 8 15.5ZM8 15.5L10 17C10 17 12 17.5 13.5 17.5C15 19.5 20 21 20 21C20 21 18 18.5 18 17C19.5 16.5 22.5 14.5 22.5 10.5C22.5 6.5 18.6445 4.57106 16.8112 4.07106L17.5 5.06526C17.5 5.06526 19.5 7.5 18 11.5C16.5 15.5 8 15.5 8 15.5Z" stroke="#212123" stroke-linecap="round" stroke-linejoin="round"/>
</svg>
