<svg width="21" height="21" viewBox="0 0 21 21" fill="none" xmlns="http://www.w3.org/2000/svg">
<path d="M7 21H0.5C0.223858 21 0 20.7761 0 20.5V9.22997C0 9.08401 0.0637813 8.94533 0.174604 8.85034L10.1666 0.285809C10.3573 0.122324 10.6397 0.125741 10.8264 0.293791L20.3345 8.85103C20.4398 8.94586 20.5 9.08094 20.5 9.22268V20.5C20.5 20.7761 20.2761 21 20 21H14C13.7239 21 13.5 20.7761 13.5 20.5V14C13.5 13.5 12.5 12 10.5 12C8.5 12 7.5 13.3333 7.5 14V20.5C7.5 20.7761 7.27614 21 7 21Z" fill="#D9D9D9"/>
</svg>
