<svg width="30" height="30" viewBox="0 0 30 30" fill="none" xmlns="http://www.w3.org/2000/svg">
<path d="M3.84288 11.8281C3.02988 12.1694 2.52525 12.7768 2.51763 13.6368C2.51238 14.2381 2.91813 15.0456 3.73113 15.3756C4.066 15.5119 8.76788 16.1444 8.76788 16.1444C8.76788 16.1444 10.0124 20.0781 10.4609 21.4606C10.5908 21.8606 10.6648 22.0569 10.9498 22.3181C11.4333 22.7606 12.2506 22.6219 12.6041 22.2669C13.5394 21.3294 15.0176 19.8831 15.0176 19.8831L15.6398 20.3894C15.6398 20.3894 18.4024 22.5931 19.9125 23.6306C20.8016 24.2418 21.4188 24.8794 22.4195 24.8831C22.9293 24.8856 23.7469 24.6318 24.2874 24.0131C24.6445 23.6043 24.8736 22.9506 24.9623 22.3643C25.1638 21.0331 27.5276 6.63811 27.5176 6.13436C27.5016 5.33061 26.8255 4.8781 26.2635 4.8831C25.9105 4.88685 25.6196 4.98936 24.9724 5.18686C19.9656 6.71561 4.1745 11.6894 3.84288 11.8281ZM22.5176 8.6331C22.5176 8.6331 15.9201 14.3756 13.2838 17.0181C12.4391 17.8644 12.3795 19.3169 12.3795 19.3169L11.0168 14.9568L22.5176 8.6331Z" fill="#50545B"/>
</svg>
