<svg width="24" height="24" viewBox="0 0 24 24" fill="none" xmlns="http://www.w3.org/2000/svg">
<path d="M2.99902 4.10352C2.44702 4.10352 1.99902 4.55152 1.99902 5.10352C1.99902 5.65552 2.44702 6.10352 2.99902 6.10352H20.999C21.551 6.10352 21.999 5.65552 21.999 5.10352C21.999 4.55152 21.551 4.10352 20.999 4.10352H2.99902ZM2.99902 11.1035C2.44702 11.1035 1.99902 11.5515 1.99902 12.1035C1.99902 12.6555 2.44702 13.1035 2.99902 13.1035H20.999C21.551 13.1035 21.999 12.6555 21.999 12.1035C21.999 11.5515 21.551 11.1035 20.999 11.1035H2.99902ZM2.99902 18.1035C2.44702 18.1035 1.99902 18.5515 1.99902 19.1035C1.99902 19.6555 2.44702 20.1035 2.99902 20.1035H20.999C21.551 20.1035 21.999 19.6555 21.999 19.1035C21.999 18.5515 21.551 18.1035 20.999 18.1035H2.99902Z" fill="#EAEBEE"/>
</svg>
