<svg width="20" height="20" viewBox="0 0 20 20" fill="none" xmlns="http://www.w3.org/2000/svg">
<path d="M7.99902 0.953125C3.58072 0.953125 -0.000876563 4.53513 -0.000976562 8.95313C-0.000976562 13.3711 3.58072 16.9531 7.99902 16.9531C9.83572 16.9531 11.5594 16.3041 12.9098 15.2631L17.2802 19.6721C17.6708 20.0621 18.3272 20.0621 18.7178 19.6721C19.1083 19.2811 19.1083 18.6251 18.7178 18.2341L14.3118 13.8581C15.3526 12.5081 15.999 10.7901 15.999 8.95313C15.999 4.53513 12.4173 0.953125 7.99902 0.953125ZM7.99902 2.95313C11.3127 2.95313 13.9989 5.63913 13.999 8.95313C13.999 12.2671 11.3127 14.9531 7.99902 14.9531C4.68532 14.9531 1.99912 12.2671 1.99902 8.95313C1.99902 5.63913 4.68532 2.95313 7.99902 2.95313Z" fill="#EAEBEE"/>
</svg>
